<svg data-v-fde0c5aa="" xmlns="http://www.w3.org/2000/svg" viewBox="0 0 300 300" class="iconAbove"><!----><defs data-v-fde0c5aa=""><!----></defs><rect data-v-fde0c5aa="" fill="#A92580" x="0" y="0" width="300px" height="300px" class="logo-background-square"></rect><defs data-v-fde0c5aa=""><!----></defs><g data-v-fde0c5aa="" id="83a204df-7c31-4010-8ca1-4e322f12c55d" fill="#ffffff" transform="matrix(4.809523809523809,0,0,4.809523809523809,16.223101448799884,173.47666662079945)"><path d="M1.86 5.11L1.86 5.11L1.86 5.11Q2.58 4.65 3.40 4.39L3.40 4.39L3.40 4.39Q4.21 4.13 5.00 4.13L5.00 4.13L5.00 4.13Q5.10 4.13 5.21 4.14L5.21 4.14L5.21 4.14Q5.33 4.14 5.56 4.16L5.56 4.16L3.40 14.21L3.40 14.21Q3.72 14.28 4.09 14.44L4.09 14.44L4.09 14.44Q4.47 14.60 5.22 15.01L5.22 15.01L5.22 15.01Q6.36 15.62 6.96 15.82L6.96 15.82L6.96 15.82Q7.56 16.02 8.11 16.02L8.11 16.02L8.11 16.02Q8.43 16.02 8.71 15.96L8.71 15.96L8.71 15.96Q9.00 15.90 9.28 15.79L9.28 15.79L9.28 15.79Q9.17 16.80 8.78 17.39L8.78 17.39L8.78 17.39Q8.39 17.99 7.83 17.99L7.83 17.99L7.83 17.99Q7.32 17.99 6.75 17.72L6.75 17.72L6.75 17.72Q6.19 17.44 5.04 16.53L5.04 16.53L5.04 16.53Q3.72 15.47 3.00 15.14L3.00 15.14L3.00 15.14Q2.27 14.81 1.58 14.81L1.58 14.81L1.58 14.81Q1.46 14.81 1.39 14.81L1.39 14.81L1.39 14.81Q1.32 14.81 1.26 14.83L1.26 14.83L3.35 5.12L3.35 5.12Q2.39 5.52 1.89 6.30L1.89 6.30L1.89 6.30Q1.39 7.08 1.39 8.18L1.39 8.18L1.39 8.18Q1.39 8.44 1.42 8.64L1.42 8.64L1.42 8.64Q1.46 8.83 1.54 9.02L1.54 9.02L1.54 9.02Q1.57 9.07 1.57 9.09L1.57 9.09L1.57 9.09Q1.58 9.11 1.58 9.13L1.58 9.13L1.58 9.13Q0.80 9.13 0.44 8.80L0.44 8.80L0.44 8.80Q0.08 8.47 0.08 7.77L0.08 7.77L0.08 7.77Q0.08 7.07 0.55 6.37L0.55 6.37L0.55 6.37Q1.02 5.67 1.86 5.11ZM9.86 8.13L9.86 8.13L9.86 8.23L10.01 7.49L12.03 7.49L11.02 12.25L11.02 12.25Q10.99 12.38 10.98 12.48L10.98 12.48L10.98 12.48Q10.96 12.59 10.96 12.70L10.96 12.70L10.96 12.70Q10.96 13.01 11.10 13.15L11.10 13.15L11.10 13.15Q11.24 13.30 11.54 13.30L11.54 13.30L11.54 13.30Q11.90 13.30 12.19 12.96L12.19 12.96L12.19 12.96Q12.49 12.61 12.67 11.98L12.67 11.98L13.26 11.98L13.26 11.98Q12.81 13.27 12.10 13.92L12.10 13.92L12.10 13.92Q11.38 14.57 10.44 14.57L10.44 14.57L10.44 14.57Q9.84 14.57 9.48 14.24L9.48 14.24L9.48 14.24Q9.13 13.90 9.07 13.29L9.07 13.29L9.07 13.29Q8.64 13.93 8.11 14.25L8.11 14.25L8.11 14.25Q7.59 14.57 6.99 14.57L6.99 14.57L6.99 14.57Q6.12 14.57 5.62 13.99L5.62 13.99L5.62 13.99Q5.12 13.40 5.12 12.32L5.12 12.32L5.12 12.32Q5.12 11.54 5.36 10.68L5.36 10.68L5.36 10.68Q5.60 9.83 6.02 9.13L6.02 9.13L6.02 9.13Q6.54 8.30 7.22 7.86L7.22 7.86L7.22 7.86Q7.91 7.42 8.72 7.42L8.72 7.42L8.72 7.42Q9.27 7.42 9.56 7.61L9.56 7.61L9.56 7.61Q9.86 7.80 9.86 8.13ZM9.06 11.98L9.73 8.82L9.73 8.82Q9.73 8.61 9.58 8.45L9.58 8.45L9.58 8.45Q9.42 8.29 9.16 8.29L9.16 8.29L9.16 8.29Q8.39 8.29 7.79 9.58L7.79 9.58L7.79 9.58Q7.20 10.86 7.20 12.12L7.20 12.12L7.20 12.12Q7.20 12.67 7.35 12.94L7.35 12.94L7.35 12.94Q7.50 13.22 7.90 13.22L7.90 13.22L7.90 13.22Q8.26 13.22 8.60 12.87L8.60 12.87L8.60 12.87Q8.95 12.52 9.06 11.98L9.06 11.98ZM16.07 12.99L16.07 12.99L16.07 12.99Q16.07 12.74 16.13 12.36L16.13 12.36L16.13 12.36Q16.20 11.98 16.39 11.16L16.39 11.16L16.39 11.16Q16.59 10.36 16.65 10.01L16.65 10.01L16.65 10.01Q16.70 9.66 16.70 9.42L16.70 9.42L16.70 9.42Q16.70 9.07 16.58 8.89L16.58 8.89L16.58 8.89Q16.45 8.71 16.20 8.71L16.20 8.71L16.20 8.71Q15.86 8.71 15.57 9.05L15.57 9.05L15.57 9.05Q15.29 9.39 15.11 10.00L15.11 10.00L14.15 14.49L12.14 14.49L13.62 7.49L15.64 7.49L15.48 8.22L15.48 8.22Q15.83 7.83 16.24 7.63L16.24 7.63L16.24 7.63Q16.65 7.43 17.12 7.43L17.12 7.43L17.12 7.43Q17.86 7.43 18.27 7.84L18.27 7.84L18.27 7.84Q18.68 8.25 18.68 9.02L18.68 9.02L18.68 9.02Q18.68 9.34 18.60 9.78L18.60 9.78L18.60 9.78Q18.52 10.22 18.30 11.13L18.30 11.13L18.30 11.13Q18.12 11.84 18.06 12.14L18.06 12.14L18.06 12.14Q18.00 12.43 18.00 12.63L18.00 12.63L18.00 12.63Q18.00 12.92 18.14 13.07L18.14 13.07L18.14 13.07Q18.28 13.22 18.56 13.22L18.56 13.22L18.56 13.22Q18.91 13.22 19.17 12.98L19.17 12.98L19.17 12.98Q19.42 12.74 19.74 11.98L19.74 11.98L20.33 11.98L20.33 11.98Q19.88 13.29 19.24 13.93L19.24 13.93L19.24 13.93Q18.61 14.57 17.72 14.57L17.72 14.57L17.72 14.57Q16.94 14.57 16.51 14.15L16.51 14.15L16.51 14.15Q16.07 13.72 16.07 12.99ZM27.52 4.06L28.50 4.06L26.15 8.13L27.47 14.49L25.24 14.49L24.50 10.99L22.47 14.49L21.62 14.49L24.25 9.84L23.21 4.93L23.21 4.93Q22.20 5.29 21.67 6.10L21.67 6.10L21.67 6.10Q21.13 6.90 21.13 8.04L21.13 8.04L21.13 8.04Q21.13 8.30 21.16 8.50L21.16 8.50L21.16 8.50Q21.20 8.69 21.28 8.88L21.28 8.88L21.28 8.88Q21.31 8.93 21.32 8.95L21.32 8.95L21.32 8.95Q21.32 8.97 21.32 8.99L21.32 8.99L21.32 8.99Q20.54 8.99 20.18 8.66L20.18 8.66L20.18 8.66Q19.82 8.33 19.82 7.63L19.82 7.63L19.82 7.63Q19.82 6.93 20.29 6.23L20.29 6.23L20.29 6.23Q20.76 5.53 21.60 4.97L21.60 4.97L21.60 4.97Q22.32 4.51 23.14 4.25L23.14 4.25L23.14 4.25Q23.95 3.99 24.74 3.99L24.74 3.99L24.74 3.99Q24.84 3.99 24.96 4.00L24.96 4.00L24.96 4.00Q25.07 4.00 25.30 4.02L25.30 4.02L25.90 6.93L27.52 4.06ZM31.04 9.11L30.21 13.03L30.21 13.03Q30.27 13.19 30.41 13.27L30.41 13.27L30.41 13.27Q30.55 13.36 30.74 13.36L30.74 13.36L30.74 13.36Q31.63 13.36 32.16 12.22L32.16 12.22L32.16 12.22Q32.70 11.09 32.70 9.59L32.70 9.59L32.70 9.59Q32.70 9.02 32.54 8.72L32.54 8.72L32.54 8.72Q32.37 8.43 32.00 8.43L32.00 8.43L32.00 8.43Q31.75 8.43 31.49 8.62L31.49 8.62L31.49 8.62Q31.22 8.81 31.04 9.11L31.04 9.11ZM29.99 14.07L29.26 17.49L27.15 17.99L29.48 6.97L31.50 6.97L31.28 8.02L31.28 8.02Q31.63 7.73 32.03 7.57L32.03 7.57L32.03 7.57Q32.44 7.42 32.91 7.42L32.91 7.42L32.91 7.42Q33.75 7.42 34.19 7.98L34.19 7.98L34.19 7.98Q34.62 8.54 34.62 9.63L34.62 9.63L34.62 9.63Q34.62 11.77 33.70 13.17L33.70 13.17L33.70 13.17Q32.79 14.57 31.18 14.57L31.18 14.57L31.18 14.57Q30.73 14.57 30.43 14.45L30.43 14.45L30.43 14.45Q30.13 14.32 29.99 14.07L29.99 14.07ZM34.86 12.89L34.86 12.89L34.86 12.89Q34.86 12.71 34.89 12.48L34.89 12.48L34.89 12.48Q34.92 12.25 34.97 11.98L34.97 11.98L36.47 4.97L38.54 4.69L36.93 12.25L36.93 12.25Q36.90 12.38 36.89 12.48L36.89 12.48L36.89 12.48Q36.88 12.59 36.88 12.70L36.88 12.70L36.88 12.70Q36.88 12.98 37.01 13.10L37.01 13.10L37.01 13.10Q37.14 13.22 37.45 13.22L37.45 13.22L37.45 13.22Q37.84 13.22 38.19 12.87L38.19 12.87L38.19 12.87Q38.54 12.53 38.71 11.98L38.71 11.98L39.30 11.98L39.30 11.98Q38.85 13.26 38.09 13.92L38.09 13.92L38.09 13.92Q37.34 14.57 36.36 14.57L36.36 14.57L36.36 14.57Q35.66 14.57 35.26 14.13L35.26 14.13L35.26 14.13Q34.86 13.69 34.86 12.89ZM38.12 12.33L38.12 12.33L38.12 12.33Q38.12 11.54 38.38 10.64L38.38 10.64L38.38 10.64Q38.64 9.74 39.09 9.04L39.09 9.04L39.09 9.04Q39.61 8.22 40.33 7.79L40.33 7.79L40.33 7.79Q41.06 7.36 41.96 7.36L41.96 7.36L41.96 7.36Q42.85 7.36 43.30 7.92L43.30 7.92L43.30 7.92Q43.75 8.48 43.75 9.60L43.75 9.60L43.75 9.60Q43.78 9.62 43.81 9.63L43.81 9.63L43.81 9.63Q43.85 9.63 43.90 9.63L43.90 9.63L43.90 9.63Q44.34 9.63 44.94 9.39L44.94 9.39L44.94 9.39Q45.54 9.16 46.06 8.79L46.06 8.79L46.19 9.17L46.19 9.17Q45.79 9.59 45.14 9.90L45.14 9.90L45.14 9.90Q44.49 10.21 43.71 10.33L43.71 10.33L43.71 10.33Q43.54 12.22 42.62 13.38L42.62 13.38L42.62 13.38Q41.69 14.55 40.36 14.55L40.36 14.55L40.36 14.55Q39.27 14.55 38.70 13.99L38.70 13.99L38.70 13.99Q38.12 13.43 38.12 12.33ZM42.07 8.22L42.07 8.22L42.07 8.22Q41.40 8.22 40.80 9.58L40.80 9.58L40.80 9.58Q40.21 10.93 40.21 12.15L40.21 12.15L40.21 12.15Q40.21 12.81 40.35 13.05L40.35 13.05L40.35 13.05Q40.50 13.29 40.92 13.29L40.92 13.29L40.92 13.29Q41.44 13.29 41.91 12.45L41.91 12.45L41.91 12.45Q42.38 11.61 42.55 10.37L42.55 10.37L42.55 10.37Q42.35 10.33 42.26 10.19L42.26 10.19L42.26 10.19Q42.17 10.04 42.17 9.79L42.17 9.79L42.17 9.79Q42.17 9.52 42.28 9.32L42.28 9.32L42.28 9.32Q42.39 9.13 42.60 9.03L42.60 9.03L42.60 9.03Q42.57 8.58 42.45 8.40L42.45 8.40L42.45 8.40Q42.34 8.22 42.07 8.22ZM47.07 9.17L45.95 14.49L43.93 14.49L45.42 7.49L47.43 7.49L47.25 8.36L47.25 8.36Q47.87 7.84 48.22 7.67L48.22 7.67L48.22 7.67Q48.58 7.49 48.94 7.49L48.94 7.49L48.94 7.49Q49.38 7.49 49.64 7.79L49.64 7.79L49.64 7.79Q49.91 8.09 49.91 8.54L49.91 8.54L49.91 8.54Q49.91 8.97 49.63 9.27L49.63 9.27L49.63 9.27Q49.35 9.56 48.90 9.56L48.90 9.56L48.90 9.56Q48.66 9.56 48.53 9.45L48.53 9.45L48.53 9.45Q48.40 9.34 48.34 8.99L48.34 8.99L48.34 8.99Q48.30 8.76 48.24 8.70L48.24 8.70L48.24 8.70Q48.19 8.64 48.09 8.64L48.09 8.64L48.09 8.64Q47.85 8.64 47.64 8.74L47.64 8.74L47.64 8.74Q47.43 8.83 47.07 9.17L47.07 9.17ZM54.84 8.71L54.84 8.71L54.84 8.71Q54.84 9.87 53.89 10.73L53.89 10.73L53.89 10.73Q52.93 11.59 51.62 11.66L51.62 11.66L51.62 11.66Q51.60 11.90 51.60 12.02L51.60 12.02L51.60 12.02Q51.59 12.14 51.59 12.22L51.59 12.22L51.59 12.22Q51.59 12.87 51.81 13.13L51.81 13.13L51.81 13.13Q52.02 13.40 52.60 13.40L52.60 13.40L52.60 13.40Q53.26 13.40 53.81 13.10L53.81 13.10L53.81 13.10Q54.36 12.80 55.08 11.98L55.08 11.98L55.55 11.98L55.55 11.98Q54.74 13.30 53.79 13.94L53.79 13.94L53.79 13.94Q52.84 14.57 51.70 14.57L51.70 14.57L51.70 14.57Q50.62 14.57 50.07 14.01L50.07 14.01L50.07 14.01Q49.52 13.45 49.52 12.35L49.52 12.35L49.52 12.35Q49.52 11.55 49.77 10.65L49.77 10.65L49.77 10.65Q50.02 9.76 50.44 9.06L50.44 9.06L50.44 9.06Q50.96 8.22 51.68 7.79L51.68 7.79L51.68 7.79Q52.40 7.36 53.30 7.36L53.30 7.36L53.30 7.36Q54.07 7.36 54.45 7.69L54.45 7.69L54.45 7.69Q54.84 8.02 54.84 8.71ZM53.41 8.11L53.41 8.11L53.41 8.11Q52.93 8.11 52.45 8.95L52.45 8.95L52.45 8.95Q51.97 9.80 51.73 10.99L51.73 10.99L51.73 10.99Q52.54 10.93 53.15 10.24L53.15 10.24L53.15 10.24Q53.76 9.55 53.76 8.68L53.76 8.68L53.76 8.68Q53.76 8.39 53.68 8.25L53.68 8.25L53.68 8.25Q53.59 8.11 53.41 8.11Z"></path></g><defs data-v-fde0c5aa=""><!----></defs><g data-v-fde0c5aa="" id="af9944fd-67d2-4a87-994b-4b84b2965bda" stroke="none" fill="#ffffff" data-darkreader-inline-stroke="" style="--darkreader-inline-stroke: none;" transform="matrix(2.0344329695541328,0,0,2.0344329695541328,48.27733874495522,5.611979763970361)"><path d="M82.145 49.047c0-17.752-14.393-32.144-32.144-32.144-17.753 0-32.145 14.392-32.145 32.144a31.982 31.982 0 0 0 5.743 18.328c.001.002 2.328 9.318-5.743 13.816 0 0 22.415 5.006 40.855-1.209a32.16 32.16 0 0 0 16.482-10.986c.088-.107.172-.221.256-.331a33.405 33.405 0 0 0 1.409-1.956l-.004.002a31.969 31.969 0 0 0 5.291-17.664zM54.781 72.373c-2.641 0-4.781-2.2-4.781-4.914 0-2.715 2.14-4.914 4.781-4.914s4.779 2.199 4.779 4.914c.001 2.714-2.138 4.914-4.779 4.914zm17.145-15.218s-4.279 4.889-7.609 0c-3.674-5.397 7.24-5.589-3.273-23.013 0 0-1.742-3.373-.064-4.435l-.008-.012s3.986-4.365 10.303 7.757c.002.002 0-.001 0 0 2.797 4.921 4.159 12.053.651 19.703z"></path></g><!----></svg>